<svg width="106" height="60" viewBox="0 0 106 60" fill="none" xmlns="http://www.w3.org/2000/svg">
<path d="M24.1457 21.103H24.1428C21.7448 21.103 19.8008 22.8306 19.8008 24.9617V24.9642C19.8008 27.0953 21.7448 28.8229 24.1428 28.8229H24.1457C26.5437 28.8229 28.4877 27.0953 28.4877 24.9642V24.9617C28.4877 22.8306 26.5437 21.103 24.1457 21.103Z" fill="#AFB1B8"/>
<path d="M56.1949 19.8695C56.1881 16.9095 54.8622 14.0725 52.5073 11.9792C50.1524 9.88592 46.9603 8.70692 43.6296 8.7002V8.7002C40.2979 8.70557 37.1044 9.88398 34.7483 11.9774C32.3921 14.0708 31.0654 16.9087 31.0586 19.8695V19.8695V36.1924C31.0586 36.1924 56.192 33.7047 56.1949 19.8721V19.8695Z" fill="#AFB1B8"/>
<path d="M11 41.55C11.006 43.6096 11.9291 45.5833 13.5676 47.0399C15.2061 48.4965 17.4267 49.3175 19.7442 49.3235V49.3235C22.0612 49.3175 24.2814 48.4968 25.9197 47.0408C27.5581 45.5847 28.4816 43.6117 28.4884 41.5525V41.5525V30.1948C28.4884 30.1948 11 31.9271 11 41.55ZM19.7442 43.5849C19.2913 43.5849 18.8486 43.4656 18.472 43.242C18.0955 43.0184 17.802 42.7005 17.6287 42.3287C17.4554 41.9569 17.41 41.5477 17.4984 41.153C17.5867 40.7582 17.8048 40.3956 18.125 40.111C18.4453 39.8264 18.8533 39.6326 19.2975 39.5541C19.7416 39.4756 20.202 39.5159 20.6205 39.6699C21.0389 39.8239 21.3965 40.0847 21.6481 40.4194C21.8997 40.754 22.034 41.1475 22.034 41.55C22.0351 41.8178 21.9767 42.0833 21.8622 42.3311C21.7476 42.5788 21.5791 42.8041 21.3664 42.9938C21.1536 43.1836 20.9008 43.3342 20.6224 43.4369C20.3441 43.5397 20.0456 43.5926 19.7442 43.5926V43.5849Z" fill="#AFB1B8"/>
<path d="M35.7305 39.9414V44.207H34.8516V39.9414H35.7305ZM37.4297 41.7637V42.4492H35.4902V41.7637H37.4297ZM37.6348 39.9414V40.6299H35.4902V39.9414H37.6348ZM41.6484 41.9746V42.1768C41.6484 42.501 41.6045 42.792 41.5166 43.0498C41.4287 43.3076 41.3047 43.5273 41.1445 43.709C40.9844 43.8887 40.793 44.0264 40.5703 44.1221C40.3496 44.2178 40.1045 44.2656 39.835 44.2656C39.5674 44.2656 39.3223 44.2178 39.0996 44.1221C38.8789 44.0264 38.6875 43.8887 38.5254 43.709C38.3633 43.5273 38.2373 43.3076 38.1475 43.0498C38.0596 42.792 38.0156 42.501 38.0156 42.1768V41.9746C38.0156 41.6484 38.0596 41.3574 38.1475 41.1016C38.2354 40.8438 38.3594 40.624 38.5195 40.4424C38.6816 40.2607 38.873 40.1221 39.0938 40.0264C39.3164 39.9307 39.5615 39.8828 39.8291 39.8828C40.0986 39.8828 40.3438 39.9307 40.5645 40.0264C40.7871 40.1221 40.9785 40.2607 41.1387 40.4424C41.3008 40.624 41.4258 40.8438 41.5137 41.1016C41.6035 41.3574 41.6484 41.6484 41.6484 41.9746ZM40.7607 42.1768V41.9688C40.7607 41.7422 40.7402 41.543 40.6992 41.3711C40.6582 41.1992 40.5977 41.0547 40.5176 40.9375C40.4375 40.8203 40.3398 40.7324 40.2246 40.6738C40.1094 40.6133 39.9775 40.583 39.8291 40.583C39.6807 40.583 39.5488 40.6133 39.4336 40.6738C39.3203 40.7324 39.2236 40.8203 39.1436 40.9375C39.0654 41.0547 39.0059 41.1992 38.9648 41.3711C38.9238 41.543 38.9033 41.7422 38.9033 41.9688V42.1768C38.9033 42.4014 38.9238 42.6006 38.9648 42.7744C39.0059 42.9463 39.0664 43.0918 39.1465 43.2109C39.2266 43.3281 39.3242 43.417 39.4395 43.4775C39.5547 43.5381 39.6865 43.5684 39.835 43.5684C39.9834 43.5684 40.1152 43.5381 40.2305 43.4775C40.3457 43.417 40.4424 43.3281 40.5205 43.2109C40.5986 43.0918 40.6582 42.9463 40.6992 42.7744C40.7402 42.6006 40.7607 42.4014 40.7607 42.1768ZM44.502 43.0908C44.502 43.0146 44.4902 42.9463 44.4668 42.8857C44.4453 42.8232 44.4043 42.7666 44.3438 42.7158C44.2832 42.6631 44.1982 42.6113 44.0889 42.5605C43.9795 42.5098 43.8379 42.457 43.6641 42.4023C43.4707 42.3398 43.2871 42.2695 43.1133 42.1914C42.9414 42.1133 42.7891 42.0225 42.6562 41.9189C42.5254 41.8135 42.4219 41.6914 42.3457 41.5527C42.2715 41.4141 42.2344 41.2529 42.2344 41.0693C42.2344 40.8916 42.2734 40.7305 42.3516 40.5859C42.4297 40.4395 42.5391 40.3145 42.6797 40.2109C42.8203 40.1055 42.9863 40.0244 43.1777 39.9678C43.3711 39.9111 43.583 39.8828 43.8135 39.8828C44.1279 39.8828 44.4023 39.9395 44.6367 40.0527C44.8711 40.166 45.0527 40.3213 45.1816 40.5186C45.3125 40.7158 45.3779 40.9414 45.3779 41.1953H44.5049C44.5049 41.0703 44.4785 40.9609 44.4258 40.8672C44.375 40.7715 44.2969 40.6963 44.1914 40.6416C44.0879 40.5869 43.957 40.5596 43.7988 40.5596C43.6465 40.5596 43.5195 40.583 43.418 40.6299C43.3164 40.6748 43.2402 40.7363 43.1895 40.8145C43.1387 40.8906 43.1133 40.9766 43.1133 41.0723C43.1133 41.1445 43.1309 41.21 43.166 41.2686C43.2031 41.3271 43.2578 41.3818 43.3301 41.4326C43.4023 41.4834 43.4912 41.5312 43.5967 41.5762C43.7021 41.6211 43.8242 41.665 43.9629 41.708C44.1953 41.7783 44.3994 41.8574 44.5752 41.9453C44.7529 42.0332 44.9014 42.1318 45.0205 42.2412C45.1396 42.3506 45.2295 42.4746 45.29 42.6133C45.3506 42.752 45.3809 42.9092 45.3809 43.085C45.3809 43.2705 45.3447 43.4365 45.2725 43.583C45.2002 43.7295 45.0957 43.8535 44.959 43.9551C44.8223 44.0566 44.6592 44.1338 44.4697 44.1865C44.2803 44.2393 44.0684 44.2656 43.834 44.2656C43.623 44.2656 43.415 44.2383 43.21 44.1836C43.0049 44.127 42.8184 44.042 42.6504 43.9287C42.4844 43.8154 42.3516 43.6709 42.252 43.4951C42.1523 43.3193 42.1025 43.1113 42.1025 42.8711H42.9844C42.9844 43.0039 43.0049 43.1162 43.0459 43.208C43.0869 43.2998 43.1445 43.374 43.2188 43.4307C43.2949 43.4873 43.3848 43.5283 43.4883 43.5537C43.5938 43.5791 43.709 43.5918 43.834 43.5918C43.9863 43.5918 44.1113 43.5703 44.209 43.5273C44.3086 43.4844 44.3818 43.4248 44.4287 43.3486C44.4775 43.2725 44.502 43.1865 44.502 43.0908ZM47.8857 39.9414V44.207H47.0098V39.9414H47.8857ZM49.1982 39.9414V40.6299H45.7178V39.9414H49.1982ZM52.5615 43.5215V44.207H50.291V43.5215H52.5615ZM50.5781 39.9414V44.207H49.6992V39.9414H50.5781ZM52.2656 41.6787V42.3467H50.291V41.6787H52.2656ZM52.5586 39.9414V40.6299H50.291V39.9414H52.5586ZM53.0742 39.9414H54.665C54.9912 39.9414 55.2715 39.9902 55.5059 40.0879C55.7422 40.1855 55.9238 40.3301 56.0508 40.5215C56.1777 40.7129 56.2412 40.9482 56.2412 41.2275C56.2412 41.4561 56.2021 41.6523 56.124 41.8164C56.0479 41.9785 55.9395 42.1143 55.7988 42.2236C55.6602 42.3311 55.4971 42.417 55.3096 42.4814L55.0312 42.6279H53.6484L53.6426 41.9424H54.6709C54.8252 41.9424 54.9531 41.915 55.0547 41.8604C55.1562 41.8057 55.2324 41.7295 55.2832 41.6318C55.3359 41.5342 55.3623 41.4209 55.3623 41.292C55.3623 41.1553 55.3369 41.0371 55.2861 40.9375C55.2354 40.8379 55.1582 40.7617 55.0547 40.709C54.9512 40.6562 54.8213 40.6299 54.665 40.6299H53.9531V44.207H53.0742V39.9414ZM55.459 44.207L54.4863 42.3057L55.415 42.2998L56.3994 44.166V44.207H55.459ZM60.0732 42.6865H58.9863V42.001H60.0732C60.2412 42.001 60.3779 41.9736 60.4834 41.9189C60.5889 41.8623 60.666 41.7842 60.7148 41.6846C60.7637 41.585 60.7881 41.4727 60.7881 41.3477C60.7881 41.2207 60.7637 41.1025 60.7148 40.9932C60.666 40.8838 60.5889 40.7959 60.4834 40.7295C60.3779 40.6631 60.2412 40.6299 60.0732 40.6299H59.291V44.207H58.4121V39.9414H60.0732C60.4072 39.9414 60.6934 40.002 60.9316 40.123C61.1719 40.2422 61.3555 40.4072 61.4824 40.6182C61.6094 40.8291 61.6729 41.0703 61.6729 41.3418C61.6729 41.6172 61.6094 41.8555 61.4824 42.0566C61.3555 42.2578 61.1719 42.4131 60.9316 42.5225C60.6934 42.6318 60.4072 42.6865 60.0732 42.6865ZM65.1416 43.5215V44.207H62.8711V43.5215H65.1416ZM63.1582 39.9414V44.207H62.2793V39.9414H63.1582ZM64.8457 41.6787V42.3467H62.8711V41.6787H64.8457ZM65.1387 39.9414V40.6299H62.8711V39.9414H65.1387ZM67.6201 39.9414V44.207H66.7441V39.9414H67.6201ZM68.9326 39.9414V40.6299H65.4521V39.9414H68.9326ZM72.2959 43.5215V44.207H70.0254V43.5215H72.2959ZM70.3125 39.9414V44.207H69.4336V39.9414H70.3125ZM72 41.6787V42.3467H70.0254V41.6787H72ZM72.293 39.9414V40.6299H70.0254V39.9414H72.293ZM72.8086 39.9414H74.3994C74.7256 39.9414 75.0059 39.9902 75.2402 40.0879C75.4766 40.1855 75.6582 40.3301 75.7852 40.5215C75.9121 40.7129 75.9756 40.9482 75.9756 41.2275C75.9756 41.4561 75.9365 41.6523 75.8584 41.8164C75.7822 41.9785 75.6738 42.1143 75.5332 42.2236C75.3945 42.3311 75.2314 42.417 75.0439 42.4814L74.7656 42.6279H73.3828L73.377 41.9424H74.4053C74.5596 41.9424 74.6875 41.915 74.7891 41.8604C74.8906 41.8057 74.9668 41.7295 75.0176 41.6318C75.0703 41.5342 75.0967 41.4209 75.0967 41.292C75.0967 41.1553 75.0713 41.0371 75.0205 40.9375C74.9697 40.8379 74.8926 40.7617 74.7891 40.709C74.6855 40.6562 74.5557 40.6299 74.3994 40.6299H73.6875V44.207H72.8086V39.9414ZM75.1934 44.207L74.2207 42.3057L75.1494 42.2998L76.1338 44.166V44.207H75.1934ZM78.873 43.0908C78.873 43.0146 78.8613 42.9463 78.8379 42.8857C78.8164 42.8232 78.7754 42.7666 78.7148 42.7158C78.6543 42.6631 78.5693 42.6113 78.46 42.5605C78.3506 42.5098 78.209 42.457 78.0352 42.4023C77.8418 42.3398 77.6582 42.2695 77.4844 42.1914C77.3125 42.1133 77.1602 42.0225 77.0273 41.9189C76.8965 41.8135 76.793 41.6914 76.7168 41.5527C76.6426 41.4141 76.6055 41.2529 76.6055 41.0693C76.6055 40.8916 76.6445 40.7305 76.7227 40.5859C76.8008 40.4395 76.9102 40.3145 77.0508 40.2109C77.1914 40.1055 77.3574 40.0244 77.5488 39.9678C77.7422 39.9111 77.9541 39.8828 78.1846 39.8828C78.499 39.8828 78.7734 39.9395 79.0078 40.0527C79.2422 40.166 79.4238 40.3213 79.5527 40.5186C79.6836 40.7158 79.749 40.9414 79.749 41.1953H78.876C78.876 41.0703 78.8496 40.9609 78.7969 40.8672C78.7461 40.7715 78.668 40.6963 78.5625 40.6416C78.459 40.5869 78.3281 40.5596 78.1699 40.5596C78.0176 40.5596 77.8906 40.583 77.7891 40.6299C77.6875 40.6748 77.6113 40.7363 77.5605 40.8145C77.5098 40.8906 77.4844 40.9766 77.4844 41.0723C77.4844 41.1445 77.502 41.21 77.5371 41.2686C77.5742 41.3271 77.6289 41.3818 77.7012 41.4326C77.7734 41.4834 77.8623 41.5312 77.9678 41.5762C78.0732 41.6211 78.1953 41.665 78.334 41.708C78.5664 41.7783 78.7705 41.8574 78.9463 41.9453C79.124 42.0332 79.2725 42.1318 79.3916 42.2412C79.5107 42.3506 79.6006 42.4746 79.6611 42.6133C79.7217 42.752 79.752 42.9092 79.752 43.085C79.752 43.2705 79.7158 43.4365 79.6436 43.583C79.5713 43.7295 79.4668 43.8535 79.3301 43.9551C79.1934 44.0566 79.0303 44.1338 78.8408 44.1865C78.6514 44.2393 78.4395 44.2656 78.2051 44.2656C77.9941 44.2656 77.7861 44.2383 77.5811 44.1836C77.376 44.127 77.1895 44.042 77.0215 43.9287C76.8555 43.8154 76.7227 43.6709 76.623 43.4951C76.5234 43.3193 76.4736 43.1113 76.4736 42.8711H77.3555C77.3555 43.0039 77.376 43.1162 77.417 43.208C77.458 43.2998 77.5156 43.374 77.5898 43.4307C77.666 43.4873 77.7559 43.5283 77.8594 43.5537C77.9648 43.5791 78.0801 43.5918 78.2051 43.5918C78.3574 43.5918 78.4824 43.5703 78.5801 43.5273C78.6797 43.4844 78.7529 43.4248 78.7998 43.3486C78.8486 43.2725 78.873 43.1865 78.873 43.0908Z" fill="#AFB1B8"/>
</svg>
